<svg xmlns="http://www.w3.org/2000/svg" width="100%" viewBox="0 0 243 46" fill="none" class="assetera-logo"><path d="M242.985 21.8086C242.985 20.6052 242.917 19.4048 242.715 18.2198C242.005 14.0125 239.794 10.9504 235.721 9.47443C231.774 8.04443 227.751 7.9985 223.782 9.41625C219.71 10.8707 217.226 13.8165 216.118 17.9687C215.998 18.4158 216.047 18.6546 216.556 18.8169C218.05 19.3007 219.529 19.8304 220.999 20.3816C221.434 20.5439 221.59 20.4765 221.703 20.0234C222.018 18.7618 222.554 17.5951 223.399 16.5907C225.751 13.7951 231.18 13.1 234.429 15.173C235.822 16.0641 236.484 17.3532 236.41 18.9853C236.343 20.5378 235.323 21.3921 234.025 21.9892C231.934 22.9538 229.717 23.5295 227.5 24.1082C225.007 24.7574 222.518 25.4188 220.218 26.6252C218.255 27.6572 216.635 29.0412 215.778 31.1572C215.169 32.6668 215.077 34.2376 215.156 35.8513C215.34 39.6667 217.634 42.8544 221.228 44.1711C223.583 45.0346 226.014 45.2704 228.51 45.0958C232.096 44.8447 235.051 43.4117 237.421 40.4659C237.421 41.6142 237.436 42.6339 237.415 43.6536C237.405 44.0516 237.537 44.1772 237.938 44.1741C239.402 44.1588 240.866 44.1496 242.329 44.1986C242.896 44.217 243.003 44.0272 243 43.5005C242.982 36.2678 242.988 29.0351 242.991 21.8024L242.985 21.8086ZM233.734 38.0285C230.804 39.6667 227.65 39.9546 224.419 39.1033C222.848 38.6868 221.801 37.6365 221.483 35.9953C221.133 34.2009 221.345 32.5535 222.894 31.3164C224.006 30.4314 225.292 29.9017 226.627 29.4761C229.098 28.6891 231.627 28.092 234.034 27.1091C235.042 26.6987 236.067 26.2915 236.72 25.0881C236.744 25.4096 236.759 25.5351 236.759 25.6607C236.759 28.0185 236.759 30.3763 236.759 32.7341C236.762 35.0828 235.752 36.8986 233.728 38.0285H233.734Z" fill="currentColor"></path><path d="M212.116 9.15302C210.377 8.67839 208.662 8.72432 206.971 9.36124C205.097 10.0655 203.701 11.3271 202.562 13.0082C202.562 12.01 202.544 11.0086 202.571 10.0104C202.583 9.57559 202.489 9.39492 202.002 9.40411C200.342 9.43473 198.679 9.43167 197.02 9.40411C196.539 9.39492 196.441 9.5664 196.447 10.0073C196.468 11.8415 196.456 13.6788 196.456 15.5161C196.456 24.8279 196.462 34.1367 196.441 43.4485C196.441 44.0548 196.603 44.2202 197.203 44.2049C198.842 44.165 200.483 44.165 202.121 44.2049C202.703 44.2202 202.847 44.0548 202.847 43.4761C202.825 37.0059 202.835 30.5356 202.832 24.0685C202.832 22.8437 202.865 21.6188 203.132 20.4185C203.695 17.8739 204.905 15.8988 207.694 15.3844C208.888 15.1639 210.098 15.1762 211.252 15.5957C211.751 15.7763 211.837 15.5957 211.908 15.17C212.186 13.5134 212.456 11.8507 212.802 10.2094C212.943 9.53884 212.682 9.30918 212.119 9.15608L212.116 9.15302Z" fill="currentColor"></path><path d="M172.122 8.62621C166.543 9.51422 162.712 12.7662 160.498 17.8523C158.217 23.0916 158.229 28.5298 159.809 33.9467C160.942 37.8386 163.245 40.9436 166.76 43.0534C169.813 44.8845 173.154 45.4143 176.66 45.0836C182.132 44.5661 186.278 41.9388 189.141 37.2538C189.395 36.8373 189.395 36.6168 188.972 36.3137C187.8 35.4777 186.661 34.5897 185.509 33.7201C184.689 33.0985 184.692 33.1016 184.147 33.9589C182.279 36.9047 179.918 39.1094 176.213 39.4003C172.621 39.6851 169.531 38.7909 167.36 35.7227C166.01 33.815 165.459 31.6318 165.299 29.3229C165.263 28.7748 165.419 28.6799 165.921 28.6799C169.877 28.6983 173.833 28.6891 177.787 28.6891C181.786 28.6891 185.785 28.6891 189.784 28.6891C190.093 28.6891 190.433 28.7993 190.436 28.2481C190.454 25.333 190.308 22.4424 189.465 19.6222C187.132 11.8169 180.144 7.34931 172.119 8.62621H172.122ZM183.534 23.704C181.241 23.7162 178.947 23.7101 176.654 23.7101C175.998 23.7101 175.343 23.7101 174.688 23.7101C171.76 23.7101 168.836 23.7101 165.909 23.7101C165.603 23.7101 165.318 23.7713 165.345 23.2661C165.541 19.8304 168.028 15.6813 171.445 14.6708C175.113 13.5837 178.564 13.9604 181.403 16.7745C183.21 18.5658 183.822 20.9144 184.061 23.3794C184.107 23.8632 183.745 23.7009 183.531 23.7009L183.534 23.704Z" fill="currentColor"></path><path d="M155.464 9.40402C153.06 9.43158 150.656 9.3979 148.25 9.42852C147.677 9.43464 147.472 9.32135 147.484 8.69362C147.527 6.33274 147.484 3.97186 147.512 1.61098C147.518 1.06899 147.429 0.851582 146.81 0.873017C145.24 0.925073 143.663 0.922011 142.089 0.873017C141.476 0.854645 141.375 1.06593 141.381 1.61405C141.409 3.99636 141.381 6.37867 141.403 8.76098C141.406 9.25704 141.292 9.44383 140.757 9.42852C139.403 9.38871 138.047 9.43464 136.69 9.40402C136.243 9.39484 136.136 9.54794 136.142 9.96439C136.16 11.4281 136.167 12.8948 136.142 14.3585C136.133 14.8392 136.271 15.0107 136.77 14.9985C138.016 14.9679 139.262 15.0169 140.506 14.977C141.097 14.9587 141.286 15.1179 141.28 15.7334C141.25 18.9915 141.265 22.2465 141.265 25.5045C141.265 26.466 141.253 27.4275 141.265 28.389C141.305 31.0531 141.139 33.7201 141.461 36.3811C141.988 40.7507 144.278 43.182 148.617 43.9476C150.482 44.2783 152.362 44.1711 154.242 44.1956C154.711 44.2017 154.631 43.8894 154.631 43.6169C154.634 41.9541 154.613 40.2945 154.643 38.6348C154.652 38.1234 154.469 38.0101 153.997 38.0224C153.014 38.0469 152.028 38.0438 151.048 37.9918C149.116 37.8938 148.106 36.9813 147.741 35.0797C147.576 34.2162 147.558 33.3404 147.558 32.4678C147.548 26.8733 147.558 21.2758 147.536 15.6813C147.536 15.1424 147.674 14.9709 148.228 14.977C150.653 15.0046 153.082 14.977 155.507 14.9985C156.024 15.0046 156.177 14.8484 156.165 14.334C156.131 12.9132 156.122 11.4924 156.165 10.0716C156.183 9.49589 155.981 9.3979 155.461 9.40402H155.464Z" fill="currentColor"></path><path d="M116.22 8.53754C110.381 9.2357 106.314 12.503 103.987 17.8126C101.675 23.0886 101.694 28.5698 103.307 34.0264C104.449 37.8908 106.752 40.9713 110.246 43.0627C113.281 44.8785 116.597 45.4083 120.081 45.0867C125.609 44.5784 129.779 41.9236 132.651 37.1865C132.878 36.8099 132.847 36.6109 132.483 36.3475C131.28 35.4779 130.104 34.5684 128.919 33.6743C128.159 33.1017 128.162 33.1048 127.648 33.9131C125.774 36.8803 123.407 39.1126 119.674 39.4004C116.456 39.6515 113.581 38.9809 111.388 36.4394C109.713 34.4949 109 32.1586 108.807 29.6385C108.736 28.7137 108.752 28.7106 109.704 28.7106C113.571 28.7106 117.439 28.7106 121.306 28.7106C125.305 28.7106 129.304 28.7106 133.304 28.7106C133.604 28.7106 133.907 28.7841 133.91 28.285C133.934 25.3485 133.787 22.4333 132.933 19.5978C130.649 12.0253 124.05 7.60054 116.22 8.53754ZM126.98 23.7255C124.359 23.7378 121.738 23.7347 119.114 23.7347C118.808 23.7347 118.501 23.7347 118.195 23.7347C115.268 23.7347 112.34 23.7347 109.413 23.7347C109.07 23.7347 108.788 23.7807 108.822 23.2448C109.04 19.8459 111.489 15.7549 114.851 14.726C118.511 13.6084 121.974 13.9666 124.834 16.7593C126.671 18.5537 127.305 20.9237 127.532 23.4163C127.574 23.894 127.192 23.7225 126.98 23.7225V23.7255Z" fill="currentColor"></path><path d="M92.3017 25.8107C89.5611 24.5307 86.6215 23.8356 83.7523 22.9293C82.2764 22.4638 80.7943 22.0015 79.3796 21.3645C78.2773 20.8685 77.4168 20.1458 77.1933 18.8689C76.9024 17.2123 77.5944 15.6568 79.251 14.8637C82.3407 13.3816 85.461 13.3878 88.4587 15.1515C90.1551 16.1467 91.0983 17.7727 91.7964 19.561C91.8914 19.8059 91.9097 20.1152 92.3629 19.9835C93.9338 19.5273 95.5138 19.1078 97.0939 18.6852C97.3848 18.6056 97.4797 18.4739 97.3878 18.1708C96.5151 15.2955 95.0606 12.806 92.5926 11.0085C89.9194 9.06409 86.845 8.46698 83.6176 8.48535C83.1368 8.48535 82.653 8.45473 82.1753 8.49147C79.0183 8.73338 76.1767 9.67957 73.8648 11.9976C70.2086 15.6629 69.7769 22.8742 76.0879 25.973C78.6539 27.2315 81.3669 28.0185 84.0861 28.8299C86.2816 29.4822 88.4832 30.1252 90.5257 31.1939C91.5392 31.7236 92.2711 32.48 92.565 33.6191C93.0825 35.6064 92.2619 37.5171 90.3695 38.5368C87.8249 39.9055 85.0966 39.979 82.3345 39.483C79.8144 39.0298 78.0354 37.5661 76.9453 35.2512C76.4186 34.1335 76.1154 32.9515 75.9531 31.7389C75.898 31.3286 75.7725 31.2367 75.3775 31.3286C73.7423 31.7083 72.101 32.0727 70.4567 32.4218C70.08 32.5014 69.9637 32.6392 70.0341 33.0373C70.2148 34.0692 70.4077 35.1011 70.7782 36.084C72.349 40.2822 75.1111 43.2738 79.5266 44.4864C83.0235 45.4479 86.5694 45.4479 90.0939 44.6426C92.2772 44.1435 94.2032 43.1422 95.817 41.5162C99.5129 37.7866 98.9464 32.5688 97.2347 29.7761C96.0619 27.8654 94.2645 26.7293 92.3047 25.8138L92.3017 25.8107Z" fill="currentColor"></path><path d="M61.8705 26.8733C60.0546 25.7403 58.0765 25.0085 56.0617 24.3593C53.22 23.4407 50.311 22.7272 47.5368 21.5973C47.2949 21.4993 47.053 21.3922 46.8172 21.285C44.0858 20.054 44.1532 16.7469 46.2813 15.1914C47.7266 14.135 49.3863 13.8502 51.1133 13.8226C53.7804 13.7798 56.1076 14.5514 57.8469 16.6888C58.5573 17.5615 59.0503 18.5566 59.4483 19.6039C59.5433 19.855 59.58 20.0908 59.9781 19.9744C61.5489 19.512 63.1259 19.0772 64.7029 18.6485C64.9969 18.5689 65.0979 18.4464 65.006 18.1433C64.1333 15.2955 62.6911 12.8183 60.2475 11.0269C57.559 9.05802 54.4663 8.45785 51.2144 8.43335C48.4523 8.43947 46.1068 8.89573 44.1899 9.97971C40.6348 11.9915 38.6291 14.9342 38.8894 19.1721C39.0793 22.2557 40.8093 24.2858 43.3662 25.7342C45.8373 27.1336 48.5656 27.8654 51.2603 28.6799C53.6181 29.3934 56.0004 30.0518 58.199 31.2062C59.1666 31.7145 59.8678 32.4494 60.1741 33.5334C60.7283 35.5084 59.9291 37.4437 58.0643 38.4909C55.7248 39.8045 53.1863 39.9025 50.6111 39.5871C47.7389 39.235 45.6781 37.7223 44.49 35.0644C44.0337 34.0417 43.7336 32.9699 43.6081 31.8584C43.553 31.3685 43.3938 31.2062 42.8763 31.3348C41.6698 31.6379 40.4511 31.8829 39.2385 32.1585C37.4992 32.5535 37.4778 32.5627 37.8912 34.2928C38.9292 38.6593 41.2135 42.1838 45.479 43.8526C50.6448 45.8767 55.9514 45.8981 60.9733 43.3382C64.0599 41.7643 65.9308 39.0727 66.136 35.4931C66.3442 31.8431 65.0948 28.8698 61.8796 26.8641L61.8705 26.8733Z" fill="currentColor"></path><path d="M33.2369 8.59865C32.9613 8.81912 32.8051 8.93548 32.6581 9.06103C31.2404 10.2951 29.8165 11.523 28.4202 12.7784C28.0864 13.0785 27.918 13.1061 27.6179 12.7264C26.537 11.3637 25.1621 10.3685 23.5637 9.70101C20.2107 8.30163 16.723 8.08116 13.2108 8.79462C8.11236 9.82961 4.77161 12.8519 3.38448 17.935C3.25587 18.4127 3.32017 18.6546 3.84379 18.823C5.29829 19.2884 6.74054 19.7906 8.16441 20.3449C8.69722 20.55 8.85032 20.4398 8.99424 19.9192C9.75977 17.148 11.3429 15.0995 14.2304 14.3309C16.1932 13.8073 18.1775 13.8746 20.1219 14.4503C21.2518 14.7841 22.2439 15.372 22.9482 16.3611C23.4627 17.0837 23.4596 17.0868 22.789 17.6747C15.3818 24.1449 7.97456 30.6151 0.558162 37.0731C0.160089 37.4222 -0.00526431 37.7743 0.000859887 38.3041C0.0314809 40.3159 0.0100462 42.3246 0.0161704 44.3364C0.0161704 44.5691 -0.0542579 44.8141 0.098847 45.0376C0.340753 45.0039 0.466299 44.808 0.625528 44.6732C1.75544 43.7056 2.88536 42.741 3.99384 41.752C4.26943 41.507 4.41641 41.504 4.6675 41.7857C5.35647 42.5573 6.16486 43.1973 7.10187 43.6413C10.6998 45.35 14.4632 45.5643 18.2938 44.7222C20.8721 44.1557 22.9207 42.6798 24.5895 40.6404C24.7579 40.8303 24.6752 41.0569 24.6783 41.259C24.6906 42.0245 24.7151 42.79 24.6722 43.5525C24.6416 44.0853 24.8437 44.2109 25.3428 44.1986C26.7177 44.168 28.0987 44.1557 29.4736 44.2017C30.0921 44.2231 30.2758 44.0761 30.2728 43.4239C30.2483 36.1453 30.2575 28.8667 30.2513 21.5881C30.2513 20.9542 30.2238 20.3204 30.1564 19.6926C30.1135 19.3007 30.2207 19.0435 30.5239 18.7954C31.3169 18.1432 32.0825 17.4573 32.8572 16.7836C33.0348 16.6275 33.243 16.505 33.243 16.2141C33.2369 13.7277 33.243 11.2412 33.243 8.59559L33.2369 8.59865ZM24.0108 33.0219C23.9893 35.2236 22.9544 36.9139 21.0895 37.9764C18.0611 39.7034 14.8153 39.979 11.4745 39.0114C10.7519 38.8032 10.1456 38.3806 9.63116 37.8111C9.28821 37.4314 9.25758 37.2048 9.68934 36.8343C13.8507 33.2639 17.9907 29.669 22.1368 26.0802C22.7247 25.5688 23.3157 25.0605 23.8975 24.5614C24.0506 24.6747 24.0383 24.788 24.0383 24.8951C24.0322 27.6051 24.0445 30.312 24.0169 33.0219H24.0108Z" fill="currentColor"></path></svg>